<svg xmlns="http://www.w3.org/2000/svg" xmlns:xlink="http://www.w3.org/1999/xlink" width="810" height="240" viewBox="0 0 810 240"><defs><style>.cls-1{fill:none;clip-rule:evenodd;}.cls-2{clip-path:url(#clip-path);}.cls-3{fill:#0a0b09;}.cls-12,.cls-4,.cls-5{fill:#fff;}.cls-4{stroke:#fff;stroke-miterlimit:10;stroke-width:0.2px;}.cls-6{fill:url(#linear-gradient);}.cls-7{fill:url(#linear-gradient-2);}.cls-8{fill:url(#linear-gradient-3);}.cls-9{fill:url(#linear-gradient-4);}.cls-10{opacity:0.2;}.cls-10,.cls-11,.cls-12{isolation:isolate;}.cls-11{opacity:0.12;}.cls-12{opacity:0.25;}</style><clipPath id="clip-path"><path class="cls-1" d="M805,211.94A23,23,0,0,1,782,235H28.07A23.06,23.06,0,0,1,5,211.94V28.09A23.09,23.09,0,0,1,28.07,5H782a23.06,23.06,0,0,1,23,23.09V211.94h0"/></clipPath><linearGradient id="linear-gradient" x1="138.64" y1="-209.82" x2="41.77" y2="-306.69" gradientTransform="matrix(1, 0, 0, -1, 0, -154.55)" gradientUnits="userSpaceOnUse"><stop offset="0" stop-color="#00a0ff"/><stop offset="0.01" stop-color="#00a1ff"/><stop offset="0.26" stop-color="#00beff"/><stop offset="0.51" stop-color="#00d2ff"/><stop offset="0.76" stop-color="#00dfff"/><stop offset="1" stop-color="#00e3ff"/></linearGradient><linearGradient id="linear-gradient-2" x1="208.11" y1="-275" x2="68.44" y2="-275" gradientTransform="matrix(1, 0, 0, -1, 0, -154.55)" gradientUnits="userSpaceOnUse"><stop offset="0" stop-color="#ffe000"/><stop offset="0.41" stop-color="#ffbd00"/><stop offset="0.78" stop-color="orange"/><stop offset="1" stop-color="#ff9c00"/></linearGradient><linearGradient id="linear-gradient-3" x1="156.12" y1="-288.24" x2="24.75" y2="-419.61" gradientTransform="matrix(1, 0, 0, -1, 0, -154.55)" gradientUnits="userSpaceOnUse"><stop offset="0" stop-color="#ff3a44"/><stop offset="1" stop-color="#c31162"/></linearGradient><linearGradient id="linear-gradient-4" x1="54.93" y1="-160.56" x2="113.59" y2="-219.22" gradientTransform="matrix(1, 0, 0, -1, 0, -154.55)" gradientUnits="userSpaceOnUse"><stop offset="0" stop-color="#32a071"/><stop offset="0.07" stop-color="#2da771"/><stop offset="0.48" stop-color="#15cf74"/><stop offset="0.8" stop-color="#06e775"/><stop offset="1" stop-color="#00f076"/></linearGradient></defs><title>Asset 2</title><g id="Layer_2" data-name="Layer 2"><g id="artwork"><g class="cls-2"><rect class="cls-3" width="810" height="240"/></g><path class="cls-4" d="M286.52,64.13q0,7.25-4.3,11.56a16.79,16.79,0,0,1-12.72,5.12,17.83,17.83,0,0,1-18-18.09,17.84,17.84,0,0,1,18-18.09,17.87,17.87,0,0,1,7.11,1.45A14.29,14.29,0,0,1,282,50l-3,3a11.7,11.7,0,0,0-9.48-4.11A13.39,13.39,0,0,0,256,62.72a13.62,13.62,0,0,0,23.12,10,10.9,10.9,0,0,0,2.9-7H269.49V61.51h16.78A14.68,14.68,0,0,1,286.52,64.13Z"/><path class="cls-4" d="M313.12,49.66H297.35v11h14.22V64.8H297.35v11h15.77V80H292.91V45.41h20.22Z"/><path class="cls-4" d="M331.89,80h-4.45V49.66h-9.67V45.41h23.8v4.26h-9.67Z"/><path class="cls-4" d="M358.78,80V45.41h4.45V80Z"/><path class="cls-4" d="M383,80h-4.45V49.66h-9.67V45.41h23.8v4.26H383Z"/><path class="cls-4" d="M437.7,75.56a18,18,0,0,1-25.39,0,17.71,17.71,0,0,1-5.1-12.84,17.71,17.71,0,0,1,5.1-12.84,17.92,17.92,0,0,1,25.37,0,17.71,17.71,0,0,1,5.12,12.82A17.73,17.73,0,0,1,437.7,75.56Zm-22.11-2.9a13.32,13.32,0,0,0,18.82,0,13.56,13.56,0,0,0,3.85-9.94,13.56,13.56,0,0,0-3.85-9.94,13.32,13.32,0,0,0-18.82,0,13.57,13.57,0,0,0-3.84,9.94A13.57,13.57,0,0,0,415.59,72.66Z"/><path class="cls-4" d="M449,80V45.41h5.42l16.83,26.94h.19l-.19-6.67V45.41h4.45V80H471.1L453.49,51.79h-.19l.19,6.67V80Z"/><path class="cls-5" d="M406.1,130.55c-13.58,0-24.64,10.32-24.64,24.55a24.64,24.64,0,0,0,49.29,0C430.75,140.88,419.68,130.55,406.1,130.55Zm0,39.43c-7.44,0-13.86-6.14-13.86-14.88s6.42-14.88,13.86-14.88,13.86,6,13.86,14.88S413.54,170,406.1,170Zm-53.76-39.43c-13.58,0-24.64,10.32-24.64,24.55a24.64,24.64,0,0,0,49.29,0C377,140.88,365.92,130.55,352.34,130.55Zm0,39.43c-7.44,0-13.86-6.14-13.86-14.88s6.42-14.88,13.86-14.88,13.86,6,13.86,14.88S359.78,170,352.34,170Zm-63.95-31.9V148.5h24.92c-.74,5.86-2.7,10.14-5.67,13.11-3.63,3.63-9.3,7.63-19.25,7.63a27.71,27.71,0,0,1,0-55.42,26.56,26.56,0,0,1,18.78,7.44l7.35-7.35A36.33,36.33,0,0,0,288.4,103.4c-21,0-38.69,17.11-38.69,38.13s17.67,38.13,38.69,38.13c11.35,0,19.9-3.72,26.6-10.69,6.88-6.88,9-16.55,9-24.36a33.89,33.89,0,0,0-.56-6.51Zm261.53,8.09c-2-5.49-8.28-15.62-21-15.62s-23.15,10-23.15,24.55c0,13.76,10.41,24.55,24.36,24.55a24.42,24.42,0,0,0,20.46-10.88l-8.37-5.58c-2.79,4.09-6.6,6.79-12.09,6.79s-9.39-2.51-11.9-7.44L551,149Zm-33.48,8.18A13.46,13.46,0,0,1,529.28,140c4.28,0,7.9,2.14,9.11,5.21Zm-26.69,23.81h10.79V106H489.76ZM472.09,136h-.37a17,17,0,0,0-12.93-5.49c-12.27,0-23.53,10.79-23.53,24.64s11.25,24.46,23.53,24.46a16.74,16.74,0,0,0,12.93-5.58h.37v3.53c0,9.39-5,14.41-13.11,14.41-6.6,0-10.69-4.74-12.37-8.74l-9.39,3.91A23.4,23.4,0,0,0,459,201.69c12.65,0,23.34-7.44,23.34-25.57V132H472.09ZM459.72,170c-7.44,0-13.67-6.23-13.67-14.79s6.23-15,13.67-15,13.11,6.32,13.11,15S467.07,170,459.72,170Zm140.73-64H574.64v72.16h10.77V150.83h15c11.94,0,23.67-8.64,23.67-22.41S612.39,106,600.45,106Zm.28,34.78H585.41V116h15.32a12.37,12.37,0,1,1,0,24.74Zm66.56-10.36c-7.8,0-15.88,3.44-19.22,11l9.56,4c2-4,5.85-5.29,9.84-5.29,5.57,0,11.23,3.34,11.33,9.28v.74a23.83,23.83,0,0,0-11.23-2.79c-10.3,0-20.79,5.66-20.79,16.25,0,9.65,8.45,15.87,17.92,15.87,7.24,0,11.23-3.25,13.74-7.06h.37V178h10.4V150.38C689.2,137.57,679.64,130.42,667.29,130.42ZM666,170c-3.53,0-8.45-1.76-8.45-6.13,0-5.57,6.13-7.71,11.42-7.71a19.19,19.19,0,0,1,9.84,2.41A13.06,13.06,0,0,1,666,170Zm61.09-38-12.35,31.29h-.37L701.55,132h-11.6l19.22,43.73-11,24.32h11.23l29.61-68Zm-97,46.17h10.77V106H630.07Z"/><path class="cls-6" d="M73,48.51c-1.68,1.78-2.67,4.54-2.67,8.11V184.28c0,3.58,1,6.33,2.67,8.11l.43.42L145,121.29v-1.69L73.47,48.09Z"/><path class="cls-7" d="M168.82,145.14,145,121.29v-1.69l23.84-23.84.54.31,28.24,16c8.07,4.58,8.07,12.08,0,16.67l-28.24,16Z"/><path class="cls-8" d="M169.36,144.83,145,120.45,73,192.39c2.66,2.82,7,3.16,12,.35l84.32-47.91"/><path class="cls-9" d="M169.36,96.07,85,48.16c-4.95-2.81-9.34-2.46-12,.35L145,120.45Z"/><path class="cls-10" d="M168.83,144.29,85,191.9c-4.69,2.66-8.88,2.49-11.57.06h0l-.43.43h0l.43.42h0c2.69,2.42,6.88,2.6,11.57-.06l84.32-47.91Z"/><path class="cls-11" d="M73,191.55c-1.68-1.78-2.67-4.54-2.67-8.11v.84c0,3.57,1,6.33,2.67,8.11l.43-.43Z"/><path class="cls-11" d="M197.61,127.94l-28.78,16.35.54.54,28.24-16c4-2.29,6.05-5.31,6.05-8.33h0C203.32,123.18,201.26,125.86,197.61,127.94Z"/><path class="cls-12" d="M85,49l112.56,64c3.66,2.08,5.71,4.76,6.05,7.49h0c0-3-2-6-6.05-8.33L85,48.16c-8.07-4.58-14.67-.78-14.67,8.46v.84C70.37,48.23,77,44.42,85,49Z"/></g></g></svg>